# xmcd CD database file
#
# Track frame offsets:
#	150
#	12801
#	24619
#	32282
#	41399
#	53462
#	65693
#	77330
#	90072
#	101422
#	114213
#	125106
#	137563
#	150911
#	163099
#	172857
#	184971
#	196935
#
# Disc length: 2783 seconds
#
# Revision: 3
# Processed by: cddbd v1.5.2PL0 Copyright (c) Steve Scherf et al.
# Submitted via: CDex 1.70beta2
#
DISCID=c60add12
DTITLE=Big Mama Thornton - Hound Dog: The Peacock Recordings
DYEAR=1900
DGENRE=
TTITLE0=Hound Dog
TTITLE1=My Man Called Me
TTITLE2=I Smell A Rat
TTITLE3=They Call Me Big Mama
TTITLE4=You Don't Move Me No More
TTITLE5=Let Your Tears Fall Baby
TTITLE6=Rock-A-Bye Baby
TTITLE7=Yes, Baby
TTITLE8=How Come
TTITLE9=Nightmare
TTITLE10=Stop A-Hoppin' On Me
TTITLE11=Just Like A Dog, Barking Up The Wrong Tree
TTITLE12=Walking Blues
TTITLE13=The Big Change
TTITLE14=Hard Times
TTITLE15=Laugh, Laugh, Laugh
TTITLE16=The Fish
TTITLE17=I've Searched The Whole World Over
EXTD=
EXTT0=
EXTT1=
EXTT2=
EXTT3=
EXTT4=
EXTT5=
EXTT6=
EXTT7=
EXTT8=
EXTT9=
EXTT10=
EXTT11=
EXTT12=
EXTT13=
EXTT14=
EXTT15=
EXTT16=
EXTT17=
PLAYORDER=
